# xmcd
#
# Track frame offsets: 
#        150
#        6908
#        11115
#        18272
#        26826
#        36783
#        43943
#        48246
#        55100
#        63526
#        73975
#        78057
#        89670
#        96207
#        99341
#        113876
#        127282
#        133268
#        137891
#        154347
#        156722
#        171635
#        177765
#        187496
#        193388
#        199276
#        208067
#        209859
#        215753
#        219350
#        224938
#        227294
#        233952
#        238964
#
# Disc length: 3289 seconds
#
# Revision: 1
# Processed by: cddbd v1.5.2PL0 Copyright (c) Steve Scherf et al.
# Submitted via: ExactAudioCopy v1.0b1
#
DISCID=2f0cd722
DTITLE=Various Artist - DJ Yoda - How To Cut and Paste Country and Western Edit
DTITLE=ion
DYEAR=2009
DGENRE=Rap
TTITLE0=DJ Yoda - Intro
TTITLE1=Dolly Parton - 9 to 5
TTITLE2=Country Mike (Beastie Boys) - Country Delight
TTITLE3=DJ Yoda - Soul Hoedown
TTITLE4=Treacherous Three - Country Rap
TTITLE5=Special Ed - Hoedown
TTITLE6=DJ Yoda - Country Harmonica
TTITLE7=Alison Krauss and Gillian Welch - I'll Fly Away
TTITLE8=Johnny Cash - Walk the Line
TTITLE9=Johnny Cash - Ring of Fire
TTITLE10=Squeal Like A Pig (from the film Deliverance)
TTITLE11=Kenny Rogers - The Gamble
TTITLE12=Tricky - Slick 66
TTITLE13=Everlast - Children's Story
TTITLE14=Outkast - Rosa Parks
TTITLE15=Yonder Mountain String Band - To See You Coming 'round The Be
TTITLE15=nd and Bubba Sparxxx - Comin' Round
TTITLE16=Hank Williams - Jambalaya (On the Bayou)
TTITLE17=DJ Yoda - Piece for Banjo (Drum and bass Mix)
TTITLE18=DJ Yoda ft. Toe Down - Dirty South (What It's About)
TTITLE19=Neal McCoy - Hillbilly Rap
TTITLE20=Nas ft. Olu Dara - Bridging the Gap
TTITLE21=Lucinda Williams - Rambling on my Mind and Dead Prez - Hip-Hop
TTITLE22=The Soggy Bottom Boys - Man of Constant Sorrow
TTITLE23=Dimples D. - Sucker DJs
TTITLE24=Terry Bush - Maybe Tomorrow (Theme from The Littlest Hobo)
TTITLE25=Dolly Parton - Jolene and Stevie Wonder - Superstition
TTITLE26=Willie Nelson - On the Road Again
TTITLE27=Norah Jones ft. Dolly Parton - Creepin' In
TTITLE28=Johnny Cash - Cocaine Blues
TTITLE29=Sir Mix-A-Lot - Square Dance Rap
TTITLE30=DJ Yoda - Mashin up da Place
TTITLE31=The Gourds - Gin and Juice
TTITLE32=Hayseed Dixie - Roses
TTITLE33=DJ Yoda - Outro
EXTD=
EXTT0=
EXTT1=
EXTT2=
EXTT3=
EXTT4=
EXTT5=
EXTT6=
EXTT7=
EXTT8=
EXTT9=
EXTT10=
EXTT11=
EXTT12=
EXTT13=
EXTT14=
EXTT15=
EXTT16=
EXTT17=
EXTT18=
EXTT19=
EXTT20=
EXTT21=
EXTT22=
EXTT23=
EXTT24=
EXTT25=
EXTT26=
EXTT27=
EXTT28=
EXTT29=
EXTT30=
EXTT31=
EXTT32=
EXTT33=
PLAYORDER=
